/* XPM */
static const char * zero_xpm[] = {
"20 20 2 1 ",
"  c #000000",
". c #ffffff",
"                    ",
"        ....        ",
"      ........      ",
"     ..........     ",
"    .....  .....    ",
"    ....    ....    ",
"    ...      ...    ",
"   ....      ....   ",
"   ....      ....   ",
"   ....      ....   ",
"   ....      ....   ",
"   ....      ....   ",
"   ....      ....   ",
"    ...      ...    ",
"    ....    ....    ",
"    .....  .....    ",
"     ..........     ",
"      ........      ",
"        ....        ",
"                    "
};

static const char * one_xpm[] = {
"20 20 2 1 ",
"  c #000000",
". c #ffffff",
"                    ",
"      .......       ",
"      .......       ",
"      .......       ",
"         ....       ",
"         ....       ",
"         ....       ",
"         ....       ",
"         ....       ",
"         ....       ",
"         ....       ",
"         ....       ",
"         ....       ",
"         ....       ",
"         ....       ",
"         ....       ",
"         ....       ",
"         ....       ",
"         ....       ",
"                    "
};

static const char * two_xpm[] = {
"20 20 2 1 ",
"  c #000000",
". c #ffffff",
"                    ",
"       ......       ",
"     ..........     ",
"    ............    ",
"    .....  ......   ",
"      .      ....   ",
"             ....   ",
"             ....   ",
"            .....   ",
"            ....    ",
"           ....     ",
"          ....      ",
"         ....       ",
"       .....        ",
"      .....         ",
"     ......         ",
"     ............   ",
"     ............   ",
"     ............   ",
"                    "
};

static const char * three_xpm[] = {
"20 20 2 1 ",
"  c #000000",
". c #ffffff",
"                    ",
"    ............    ",
"    ............    ",
"    ............    ",
"           ....     ",
"          .....     ",
"          ....      ",
"         ....       ",
"        ......      ",
"        .......     ",
"        ........    ",
"            .....   ",
"             ....   ",
"             ....   ",
"     .       ....   ",
"    ....   .....    ",
"    ............    ",
"    ...........     ",
"      .......       ",
"                    "
};

static const char * four_xpm[] = {
"20 20 2 1 ",
"  c #000000",
". c #ffffff",
"                    ",
"           ....     ",
"          ....      ",
"         ....       ",
"        .....       ",
"        ....        ",
"       ....         ",
"      .....         ",
"      ....          ",
"     ....   ....    ",
"    ....    ....    ",
"   .....    ....    ",
"   ................ ",
"   ................ ",
"   ................ ",
"            ....    ",
"            ....    ",
"            ....    ",
"            ....    ",
"                    "
};

static const char * five_xpm[] = {
"20 20 2 1 ",
"  c #000000",
". c #ffffff",
"                    ",
"     ...........    ",
"     ...........    ",
"     ...........    ",
"     ....           ",
"     ....           ",
"     ...            ",
"     ...            ",
"     ........       ",
"     ..........     ",
"     ...........    ",
"           ......   ",
"             ....   ",
"             ....   ",
"             ....   ",
"    ....   .....    ",
"    ............    ",
"    ...........     ",
"      .......       ",
"                    "
};

static const char * six_xpm[] = {
"20 20 2 1 ",
"  c #000000",
". c #ffffff",
"                    ",
"          ......    ",
"        .........   ",
"      ...........   ",
"      .....   ..    ",
"     ....           ",
"     ....           ",
"    ....            ",
"    ....  ....      ",
"    ............    ",
"    .............   ",
"    .....    .....  ",
"    .....     ....  ",
"    ....      ....  ",
"     ....     ....  ",
"     ....    ....   ",
"      ...........   ",
"       .........    ",
"         .....      ",
"                    "
};

static const char * seven_xpm[] = {
"20 20 2 1 ",
"  c #ffffff",
". c #000000",
"....................",
"....             ...",
"....             ...",
"....             ...",
"....   ......    ...",
"....   .....     ...",
"....   .....    ....",
"...........     ....",
"...........    .....",
"...........    .....",
"..........    ......",
"..........    ......",
".........     ......",
".........    .......",
"........     .......",
"........    ........",
"........    ........",
".......     ........",
".......    .........",
"...................."
};

static const char * eight_xpm[] = {
"20 20 2 1 ",
"  c #ffffff",
". c #000000",
"....................",
".......     ........",
".....         ......",
"....           .....",
"...     ...     ....",
"...    .....    ....",
"...    .....    ....",
"...    .....    ....",
"....           .....",
".....          .....",
"...             ....",
"...    .....    ....",
"..    .......    ...",
"..    .......    ...",
"..    .......    ...",
"..     .....     ...",
"...             ....",
"....           .....",
"......       .......",
"...................."
};

static const char * nine_xpm[] = {
"20 20 2 1 ",
"  c #000000",
". c #ffffff",
"                    ",
"       .....        ",
"     .........      ",
"    ...........     ",
"    ....    ....    ",
"   ....     ....    ",
"   ....      ....   ",
"   ....     .....   ",
"   .....    .....   ",
"    .............   ",
"     ............   ",
"      .....  ....   ",
"             ....   ",
"            ....    ",
"            ....    ",
"     ..   .....     ",
"    ...........     ",
"    .........       ",
"     ......         ",
"                    "
};
