/* XPM */
static const char * alien1_xpm[] = {
"40 32 2 1",
" 	c #000000",
".	c #70FF00",
"        ....                ....        ",
"        ....                ....        ",
"        ....                ....        ",
"        ....                ....        ",
"            ....        ....            ",
"            ....        ....            ",
"            ....        ....            ",
"            ....        ....            ",
"        ........................        ",
"        ........................        ",
"        ........................        ",
"        ........................        ",
"    ........    ........    ........    ",
"    ........    ........    ........    ",
"    ........    ........    ........    ",
"    ........    ........    ........    ",
"........................................",
"........................................",
"........................................",
"........................................",
"....    ........................    ....",
"....    ........................    ....",
"....    ........................    ....",
"....    ........................    ....",
"            ....        ....            ",
"            ....        ....            ",
"            ....        ....            ",
"            ....        ....            ",
"        ....                ....        ",
"        ....                ....        ",
"        ....                ....        ",
"        ....                ....        "};

static const char * alien2_xpm[] = {
"40 32 2 1",
" 	c #000000",
".	c #FE02FF",
"        ....                ....        ",
"        ....                ....        ",
"        ....                ....        ",
"        ....                ....        ",
"            ....        ....            ",
"            ....        ....            ",
"            ....        ....            ",
"            ....        ....            ",
"        ........................        ",
"        ........................        ",
"        ........................        ",
"        ........................        ",
"    ........    ........    ........    ",
"    ........    ........    ........    ",
"    ........    ........    ........    ",
"    ........    ........    ........    ",
"........................................",
"........................................",
"........................................",
"........................................",
"....    ........................    ....",
"....    ........................    ....",
"....    ........................    ....",
"....    ........................    ....",
"            ....        ....            ",
"            ....        ....            ",
"            ....        ....            ",
"            ....        ....            ",
"        ....                ....        ",
"        ....                ....        ",
"        ....                ....        ",
"        ....                ....        "};

static const char * alien3_xpm[] = {
"40 32 2 1",
" 	c #000000",
".	c #00EEFF",
"        ....                ....        ",
"        ....                ....        ",
"        ....                ....        ",
"        ....                ....        ",
"            ....        ....            ",
"            ....        ....            ",
"            ....        ....            ",
"            ....        ....            ",
"        ........................        ",
"        ........................        ",
"        ........................        ",
"        ........................        ",
"    ........    ........    ........    ",
"    ........    ........    ........    ",
"    ........    ........    ........    ",
"    ........    ........    ........    ",
"........................................",
"........................................",
"........................................",
"........................................",
"....    ........................    ....",
"....    ........................    ....",
"....    ........................    ....",
"....    ........................    ....",
"            ....        ....            ",
"            ....        ....            ",
"            ....        ....            ",
"            ....        ....            ",
"        ....                ....        ",
"        ....                ....        ",
"        ....                ....        ",
"        ....                ....        "};

static const char * alien4_xpm[] = {
"40 32 2 1",
" 	c #000000",
".	c #FFBD00",
"        ....                ....        ",
"        ....                ....        ",
"        ....                ....        ",
"        ....                ....        ",
"            ....        ....            ",
"            ....        ....            ",
"            ....        ....            ",
"            ....        ....            ",
"        ........................        ",
"        ........................        ",
"        ........................        ",
"        ........................        ",
"    ........    ........    ........    ",
"    ........    ........    ........    ",
"    ........    ........    ........    ",
"    ........    ........    ........    ",
"........................................",
"........................................",
"........................................",
"........................................",
"....    ........................    ....",
"....    ........................    ....",
"....    ........................    ....",
"....    ........................    ....",
"            ....        ....            ",
"            ....        ....            ",
"            ....        ....            ",
"            ....        ....            ",
"        ....                ....        ",
"        ....                ....        ",
"        ....                ....        ",
"        ....                ....        "};

static const char * alien5_xpm[] = {
"40 32 2 1",
" 	c #000000",
".	c #FF0036",
"        ....                ....        ",
"        ....                ....        ",
"        ....                ....        ",
"        ....                ....        ",
"            ....        ....            ",
"            ....        ....            ",
"            ....        ....            ",
"            ....        ....            ",
"        ........................        ",
"        ........................        ",
"        ........................        ",
"        ........................        ",
"    ........    ........    ........    ",
"    ........    ........    ........    ",
"    ........    ........    ........    ",
"    ........    ........    ........    ",
"........................................",
"........................................",
"........................................",
"........................................",
"....    ........................    ....",
"....    ........................    ....",
"....    ........................    ....",
"....    ........................    ....",
"            ....        ....            ",
"            ....        ....            ",
"            ....        ....            ",
"            ....        ....            ",
"        ....                ....        ",
"        ....                ....        ",
"        ....                ....        ",
"        ....                ....        "};
