/* XPM */
static const char * h_xpm[] = {
"32 32 2 1",
" 	c #000000",
".	c #FFFFFF",
"                                ",
"                                ",
"                                ",
"                                ",
"                                ",
"        ...          ...        ",
"        ...          ...        ",
"        ...          ...        ",
"        ...          ...        ",
"        ...          ...        ",
"        ...          ...        ",
"        ...          ...        ",
"        ...          ...        ",
"        ...          ...        ",
"        ...          ...        ",
"        ................        ",
"        ................        ",
"        ................        ",
"        ...          ...        ",
"        ...          ...        ",
"        ...          ...        ",
"        ...          ...        ",
"        ...          ...        ",
"        ...          ...        ",
"        ...          ...        ",
"        ...          ...        ",
"        ...          ...        ",
"        ...          ...        ",
"                                ",
"                                ",
"                                ",
"                                "};

static const char * slash_xpm[] = {
  "32 32 2 1",
" 	c #000000",
".	c #FFFFFF",
"                                ",
"                                ",
"                                ",
"                                ",
"                                ",
"                         ....   ",
"                        ....    ",
"                       ....     ",
"                      ....      ",
"                     ....       ",
"                    ....        ",
"                   ....         ",
"                  ....          ",
"                 ....           ",
"                ....            ",
"               ....             ",
"              ....              ",
"             ....               ",
"            ....                ",
"           ....                 ",
"          ....                  ",
"         ....                   ",
"        ....                    ",
"       ....                     ",
"      ....                      ",
"     ....                       ",
"    ....                        ",
"   ....                         ",
"                                ",
"                                ",
"                                ",
"                                "
};
