/* XPM */
static const char * cinco_xpm[] = {
"20 20 2 1 ",
"  c #000000",
". c #ffffff",
"                    ",
"     ...........    ",
"     ...........    ",
"     ...........    ",
"     ....           ",
"     ....           ",
"     ...            ",
"     ...            ",
"     ........       ",
"     ..........     ",
"     ...........    ",
"           ......   ",
"             ....   ",
"             ....   ",
"             ....   ",
"    ....   .....    ",
"    ............    ",
"    ...........     ",
"      .......       ",
"                    "
};
