/* XPM */
static const char * gameOver_xpm[] = {
"300 50 2 1 ",
"  c #000000",
". c #ffffff",
"                                                                                                                                                                                                                                                                                                            ",
"                                                                                                                                                                                                                                                                                                            ",
"                                                                                                                                                                                                                                                                                                            ",
"                                                                                                                                                                                                                                                                                                            ",
"                                                                                                                                                                                                                                                                                                            ",
"                    ........                                                                                                                                                                ........                                                                                                        ",
"                ................                                                                                                                                                        ................                                                                                                    ",
"              ....................                                                                                                                                                    ....................                                                                                                  ",
"            ........................                                                                                                                                                ........................                                                                                                ",
"           ..........................                                                                                                                                              ..........................                                                                                               ",
"          ............................                                                                                                                                            ............................                                                                                              ",
"         .............................                                                                                                                                           ..............................                                                                                             ",
"        ............         ........                                                                                                                                           ............        ............                                                                                            ",
"        ..........             .....                .........                           .......           ........                       ........                               ..........            ..........                                              ........                              ..      ",
"       ..........               ...             ...............            ........  ............       ............                  ..............                           ..........              ..........    .......               ........        ..............            ........    .....      ",
"       .........                 .            ...................          ........ ...............   ...............                ................                          .........                .........    ........              .......        ................           ........  .......      ",
"      .........                              .....................         ........................  .................             ....................                       .........                  .........   ........             ........      ....................         ........ ........      ",
"      ........                                .....................        ............................................           ......................                      ........                    ........    ........            .......      ......................        .................      ",
"      ........                                .....................        .............................................          ......................                      ........                    ........    ........            .......      ......................        .................      ",
"     .........                                 ......     ..........       .............................................         .........      .........                    .........                    .........    ........          ........     .........      .........       .................      ",
"     ........                                  ...          ........       ...........      .............      .........        .........        ........                    ........                      ........    ........          .......     .........        ........       ............           ",
"     ........                                               .........      ..........        ...........        .........       ........          ........                   ........                      ........    ........         ........     ........          ........      ..........             ",
"     ........                                                ........      .........          .........          ........       .......            .......                   ........                      ........     ........        .......      .......            .......      ..........             ",
"     ........                  .......                       ........      .........          .........          ........      ........            ........                  ........                      ........     ........        .......     ........            ........     .........              ",
"     ........                  .......                       ........      ........           ........           ........      ........             .......                  ........                      ........      ........      ........     ........             .......     .........              ",
"     ........                  .......             ..................      ........           ........           ........      ............................                  ........                      ........      ........      .......      ............................     ........               ",
"     ........                  .......          .....................      ........           ........           ........      ............................                  ........                      ........       .......     ........      ............................     ........               ",
"     .........                 .......        .......................      ........           ........           ........      ............................                  .........                    .........       ........    .......       ............................     ........               ",
"      ........                 .......        .......................      ........           ........           ........      ............................                   ........                    ........        ........   ........       ............................     ........               ",
"      ........                 .......       ..........      ........      ........           ........           ........      ........                                       ........                    ........         ........  .......        ........                         ........               ",
"      .........                .......      .........        ........      ........           ........           ........      ........                                       .........                  .........         ........  .......        ........                         ........               ",
"       .........               .......      ........         ........      ........           ........           ........      ........                                        .........                .........           ....... ........        ........                         ........               ",
"       ..........              .......      .......          ........      ........           ........           ........       ........                                       ..........              ..........           ...............          ........                        ........               ",
"        ..........            ........      .......          ........      ........           ........           ........       .........           ..                          ..........            ..........            ...............          .........           ..          ........               ",
"        ............         .........      ........        .........      ........           ........           ........       ..........         ...                          ............        ............             .............           ..........         ...          ........               ",
"         .............................      ........       ..........      ........           ........           ........        ...........     ......                          ..............................              .............            ...........     ......         ........               ",
"          ............................       .........   ............      ........           ........           ........         ......................                          ............................                ...........              ......................        ........               ",
"           ...........................       ........................      ........           ........           ........          ......................                          ..........................                 ...........               ......................       ........               ",
"            .........................         .......................      ........           ........           ........           ....................                            ........................                   ..........                ....................        ........               ",
"              .....................            .............. .......      ........           ........           ........            ..................                               ....................                     .........                  ..................         ........               ",
"                ................                ............  .......      ........           ........           ........              ..............                                   ................                       .........                    ..............           ........               ",
"                    ........                      .......                                                                                 ........                                          ........                                                           ........                                     ",
"                                                                                                                                                                                                                                                                                                            ",
"                                                                                                                                                                                                                                                                                                            ",
"                                                                                                                                                                                                                                                                                                            ",
"                                                                                                                                                                                                                                                                                                            ",
"                                                                                                                                                                                                                                                                                                            ",
"                                                                                                                                                                                                                                                                                                            ",
"                                                                                                                                                                                                                                                                                                            ",
"                                                                                                                                                                                                                                                                                                            "
};
