/* XPM */
static const char * heart_xpm[] = {
"39 36 3 1",
" 	c #000000",
".	c #FFFFFF",
"+	c #FF0000",
"                                       ",
"                                       ",
"      .........         .........      ",
"      .........         .........      ",
"      .........         .........      ",
"   ...+++++++++...   ...+++++++++...   ",
"   ...+++++++++...   ...+++++++++...   ",
"   ...+++++++++...   ...+++++++++...   ",
"...++++++.....++++...+++++++++++++++...",
"...++++++.....++++...+++++++++++++++...",
"...+++........++++...+++++++++++++++...",
"...+++......++++++++++++++++++++++++...",
"...+++......++++++++++++++++++++++++...",
"...+++...+++++++++++++++++++++++++++...",
"...+++++++++++++++++++++++++++++++++...",
"...+++++++++++++++++++++++++++++++++...",
"...+++++++++++++++++++++++++++++++++...",
"   ...+++++++++++++++++++++++++++...   ",
"   ...+++++++++++++++++++++++++++...   ",
"   ...+++++++++++++++++++++++++++...   ",
"      ...+++++++++++++++++++++...      ",
"      ...+++++++++++++++++++++...      ",
"      ...+++++++++++++++++++++...      ",
"         ...+++++++++++++++...         ",
"         ...+++++++++++++++...         ",
"         ...+++++++++++++++...         ",
"            ...+++++++++...            ",
"            ...+++++++++...            ",
"            ...+++++++++...            ",
"               ...+++...               ",
"               ...+++...               ",
"               ...+++...               ",
"                  ...                  ",
"                  ...                  ",
"                  ...                  ",
"                                       "};
