/* XPM */
static const char * heart_bad_xpm[] = {
"39 36 2 1",
" 	c #000000",
".	c #FFFFFF",
"                                       ",
"                                       ",
"      .........         .........      ",
"      .........         .........      ",
"      .........         .........      ",
"   ...         ...   ...         ...   ",
"   ...         ...   ...         ...   ",
"   ...         ...   ...         ...   ",
"...               ...               ...",
"...               ...               ...",
"...               ...               ...",
"...                                 ...",
"...                                 ...",
"...                                 ...",
"...                                 ...",
"...                                 ...",
"...                                 ...",
"   ...                           ...   ",
"   ...                           ...   ",
"   ...                           ...   ",
"      ...                     ...      ",
"      ...                     ...      ",
"      ...                     ...      ",
"         ...               ...         ",
"         ...               ...         ",
"         ...               ...         ",
"            ...         ...            ",
"            ...         ...            ",
"            ...         ...            ",
"               ...   ...               ",
"               ...   ...               ",
"               ...   ...               ",
"                  ...                  ",
"                  ...                  ",
"                  ...                  ",
"                                       "};
