/* XPM */
static const char * mouse_xpm[] = {
"32 32 97 2",
"  	c #000000",
". 	c #980390",
"+ 	c #970791",
"@ 	c #950A93",
"# 	c #930E94",
"$ 	c #960992",
"% 	c #950D94",
"& 	c #921296",
"* 	c #901698",
"= 	c #8E1A9A",
"- 	c #930F95",
"; 	c #FFFFFF",
"> 	c #8D1D9B",
", 	c #8B219D",
"' 	c #8A259F",
") 	c #8828A0",
"! 	c #852DA2",
"~ 	c #8430A4",
"{ 	c #911598",
"] 	c #8333A5",
"^ 	c #8139A7",
"/ 	c #7F3CA9",
"( 	c #8F1899",
"_ 	c #7D3FAA",
": 	c #7B44AC",
"< 	c #7A48AE",
"[ 	c #774DB1",
"} 	c #8E1B9A",
"| 	c #764FB1",
"1 	c #7453B3",
"2 	c #7259B6",
"3 	c #8C1E9B",
"4 	c #715BB7",
"5 	c #6F5FB8",
"6 	c #6D62BA",
"7 	c #8B209D",
"8 	c #8A249E",
"9 	c #6B66BC",
"0 	c #6A6ABD",
"a 	c #686FBF",
"b 	c #8827A0",
"c 	c #6672C1",
"d 	c #6576C2",
"e 	c #8729A1",
"f 	c #6379C4",
"g 	c #627CC5",
"h 	c #862CA2",
"i 	c #6477C3",
"j 	c #627BC5",
"k 	c #6080C7",
"l 	c #852FA3",
"m 	c #8334A5",
"n 	c #6D64BA",
"o 	c #6B68BC",
"p 	c #696DBF",
"q 	c #6771C0",
"r 	c #6574C2",
"s 	c #627AC5",
"t 	c #8236A6",
"u 	c #6C66BC",
"v 	c #8039A7",
"w 	c #6B69BD",
"x 	c #7F3BA8",
"y 	c #676FC0",
"z 	c #7E3DA9",
"A 	c #7258B6",
"B 	c #705CB7",
"C 	c #6E62BA",
"D 	c #7D42AC",
"E 	c #7257B5",
"F 	c #715BB6",
"G 	c #6D64BB",
"H 	c #617DC5",
"I 	c #7948AE",
"J 	c #725AB6",
"K 	c #696ABD",
"L 	c #5E85C9",
"M 	c #784BAF",
"N 	c #6772C1",
"O 	c #5B8DCD",
"P 	c #774DB0",
"Q 	c #7552B2",
"R 	c #7356B5",
"S 	c #6378C4",
"T 	c #5793D0",
"U 	c #7455B3",
"V 	c #6080C6",
"W 	c #549BD3",
"X 	c #5C88CA",
"Y 	c #51A2D6",
"Z 	c #5A8ECD",
"` 	c #50A4D7",
" .	c #5696D1",
"..	c #4EA7D8",
"+.	c #549CD3",
"@.	c #4FA5D8",
"#.	c #4EA9DA",
"                                                                ",
"                                                                ",
"                                                                ",
"        .                                                       ",
"        + @ #                                                   ",
"        $ % & * =                                               ",
"          - ; ; > , '                                           ",
"          & ; ; ; ; ) ! ~                                       ",
"          { ; ; ; ; ; ; ] ^ /                                   ",
"          ( ; ; ; ; ; ; ; ; _ : < [                             ",
"          } ; ; ; ; ; ; ; ; ; ; ; | 1 2                         ",
"          3 ; ; ; ; ; ; ; ; ; ; ; ; ; 4 5 6                     ",
"          7 8 ; ; ; ; ; ; ; ; ; ; ; ; ; ; 9 0 a                 ",
"            b ; ; ; ; ; ; ; ; ; ; ; ; ; ; ; ; c d               ",
"            e ; ; ; ; ; ; ; ; ; ; ; ; ; ; ; ; ; f g             ",
"            h ; ; ; ; ; ; ; ; ; ; ; ; ; ; ; ; i j k             ",
"            l m ; ; ; ; ; ; ; ; ; ; n o p q r s                 ",
"              t ; ; ; ; ; ; ; ; ; ; u                           ",
"              v ; ; ; ; ; ; ; ; ; ; w                           ",
"              x ; ; ; ; ; ; ; ; ; ; ; y                         ",
"              z ; ; ; ; ; A B C ; ; ; ; i                       ",
"              D ; ; ; ; E F   G ; ; ; ; ; H                     ",
"              : I ; ; ; J       K ; ; ; ; ; L                   ",
"                M ; ; E B         N ; ; ; ; ; O                 ",
"                P Q R 4             S ; ; ; ; ; T               ",
"                  U A                 V ; ; ; ; ; W             ",
"                  E 4                   X ; ; ; ; ; Y           ",
"                                          Z ; ; ; ; `           ",
"                                             .; ; ; ..          ",
"                                              +.Y @.#.          ",
"                                                                ",
"                                                                "};
