/* XPM */
static const char * nove_xpm[] = {
"14 18 2 1 ",
"  c #ffffff",
". c #000000",
"....     .....",
"..         ...",
".           ..",
".    ....    .",
"    .....    .",
"    ......    ",
"    .....     ",
"     ....     ",
".             ",
"..            ",
"...     ..    ",
"..........    ",
".........    .",
".........    .",
"..  ...     ..",
".           ..",
".         ....",
"..      ......"
};
