/* XPM */
static const char * oito_xpm[] = {
"20 20 2 1 ",
"  c #ffffff",
". c #000000",
"....................",
".......     ........",
".....         ......",
"....           .....",
"...     ...     ....",
"...    .....    ....",
"...    .....    ....",
"...    .....    ....",
"....           .....",
".....          .....",
"...             ....",
"...    .....    ....",
"..    .......    ...",
"..    .......    ...",
"..    .......    ...",
"..     .....     ...",
"...             ....",
"....           .....",
"......       .......",
"...................."
};
