/* XPM */
static const char * rocket_xpm[] = {
"40 40 57 1",
" 	c #000000",
".	c #565656",
"+	c #4A4A4A",
"@	c #3D3D3D",
"#	c #B5B5B5",
"$	c #808080",
"%	c #404040",
"&	c #ADADAD",
"*	c #B2DFDF",
"=	c #4DA9A9",
"-	c #4CA9A9",
";	c #348686",
">	c #318585",
",	c #1E6B6B",
"'	c #9DCFCF",
")	c #A4D5D5",
"!	c #F9F9F9",
"~	c #54A9A9",
"{	c #4B4B4B",
"]	c #414141",
"^	c #858585",
"/	c #7B7B9D",
"(	c #49494A",
"_	c #5A5A87",
":	c #7C7C9B",
"<	c #B0B0B3",
"[	c #545455",
"}	c #43434B",
"|	c #7D7D81",
"1	c #494950",
"2	c #BEAEAD",
"3	c #888686",
"4	c #6B3D3F",
"5	c #FF0136",
"6	c #FE0837",
"7	c #FE4836",
"8	c #6B413F",
"9	c #6A4F3F",
"0	c #585454",
"a	c #6A413F",
"b	c #F30133",
"c	c #453D3F",
"d	c #F30033",
"e	c #FD4836",
"f	c #FE4C36",
"g	c #FE9836",
"h	c #5E6867",
"i	c #2A6B6B",
"j	c #FF4C36",
"k	c #E80030",
"l	c #680030",
"m	c #FE0036",
"n	c #FD9636",
"o	c #63002D",
"p	c #800030",
"q	c #F29633",
"r	c #820031",
"                 ...++                  ",
"                @.##$+@                 ",
"                @###$$@                 ",
"               @@###$$%@@               ",
"             @..####$$$$+@              ",
"             @######$$$$$@              ",
"           @@@######$$$$$@@@            ",
"           @&#######$$$$$$$@            ",
"           @##*****=-----$$@            ",
"           @##*;>>>,,,,,-$$@            ",
"          @@##*;')>,,,,,-$$@@           ",
"         @@###*>')>,,,,,-$$$@@          ",
"         @##!#*>>>>,,,,,-+$$$@          ",
"         @##!#*****~-----+$$$@          ",
"         @#!!#######$$$+++$$$@          ",
"         @#!!#######$$$$$$$$$@          ",
"         @#!!#######$$$$$$$$$@          ",
"         @#!!#######$$$$$$$$$@          ",
"         @#!!#######$$$$$$$$$@          ",
"         @#!!#######$$$$$$$$$@          ",
"        @.#!!#######$$$$$$$$$$@         ",
"       @{###!#######$$$$$$$$$$]@        ",
"      @^{###########$$$$$$$$$$+]@       ",
"     @^^{############$$$$$$$$$$++@@     ",
"    @^^^{############$$$$$$+$$$+$$@@    ",
"   @^^^/{############$$$$$+$$$$($$$@    ",
"  @^^^//+############$$$$$$$$$$(_$$$@   ",
"@@^^^://+##<<<##<####$$$$$$$$$$(__$$$@@ ",
"@^^^:///+[#<<<<<#####$$$$$$$$$(}___$$$@@",
"{^^://///+<<<<<<<#####$$$$$$|$(_____$$$@",
"{^:://///1+[[.[[2#######33(((+(______$$+",
"{^^^^^^^^^{4567890.....098a65b$$$$$$$$$+",
"@@@@@@@@@@@cdddefghiiihgj77dkl@@@@@@@@@%",
"            ldddefgiiigfegdml           ",
"             ldddefgigfedndl            ",
"             olpddefgfedddl             ",
"               lpmdefedddl   q          ",
"            o   lpdmedddl               ",
"                 lrdmmdl    q           ",
"                  lpppl                 "};
