/* XPM */
static const char * score_xpm[] = {
"100 20 2 1 ",
"  c #000000",
". c #ffffff",
"                                                                                                    ",
"       .......           .......           .......         ...........        .............         ",
"     ...........       ...........       ...........       .............      .............         ",
"    ............      .............     .............      ..............     .............         ",
"    .....   ...      ......   .....    ......   ......     ....     .....     ....                  ",
"   ....             .....       ..    .....       .....    ....      .....    ....            ...   ",
"   ....             ....              ....         ....    ....       ....    ....           .....  ",
"   ....            ....              ....           ....   ....       ....    ....           .....  ",
"   ......          ....              ....           ....   ....       ....    ....           ....   ",
"    .........      ....              ....           ....   ....       ....    ............    ..    ",
"     ..........    ....              ....           ....   ....      ....     ............          ",
"       .........   ....              ....           ....   ..............     ............          ",
"           ......  ....              ....           ....   .............      ....                  ",
"             ....   ....              ....         ....    ............       ....                  ",
"    .        ....   .....       ..    .....       .....    ....    ....       ....            ..    ",
"   ....     .....    ......   .....    ......   ......     ....     ....      ....           ....   ",
"   .............      .............     .............      ....     .....     .............  .....  ",
"    ...........        ...........       ...........       ....      ....     .............  ....   ",
"      .......            .......           .......         ....       ....    .............   ...   ",
"                                                                                                    "
};
