/* XPM */
static const char * shot_xpm[] = {
"20 40 7 1",
" 	c #000000",
".	c #1E6B6B",
"+	c #BC1515",
"@	c #E51C1C",
"#	c #FF5A00",
"$	c #FFA300",
"%	c #FFC700",
"                    ",
"                    ",
"               .    ",
"       ++++++   .   ",
"      ++++++++      ",
"     ++@@@@@@++     ",
"    ++@@@@@@@@++    ",
"    ++@@@##@@@++    ",
"    ++@@####@@++    ",
"    ++@@#####@++    ",
"     +@##$$##@++    ",
"     +@##$$$#@+     ",
"     +@##$%$#@+     ",
"     +@##%%%##+     ",
"     +###%%###+     ",
"      ###%%###      ",
"      ###%%$##      ",
"      ###%%###      ",
"      ###%####      ",
"      ###%####      ",
"       ##$###       ",
"       ###$## .     ",
"       ###$## .     ",
"       #####  .     ",
"        #### .      ",
"      .  ### .      ",
"       . ###        ",
"       . ###        ",
"       . ###        ",
"         ###        ",
"          #         ",
"        #           ",
"                    ",
"                    ",
"      #      #      ",
"             #      ",
"                    ",
"                    ",
"                    ",
"                    "};
